<svg xmlns="http://www.w3.org/2000/svg" width="696" height="145" viewBox="0 0 696 145" fill="none">
  <path fillRule="evenodd" clipRule="evenodd" d="M234.593 8.40408C231.523 8.40408 229.034 6.05195 229.034 3.15046C229.034 1.96853 229.447 0.877755 230.144 0H28.8824C28.2993 12.8585 17.0841 23.114 3.33435 23.114C2.20428 23.114 1.09131 23.0447 0 22.9104V113.681C1.09131 113.547 2.20428 113.478 3.33435 113.478C17.4573 113.478 28.9062 124.298 28.9062 137.644C28.9062 140.209 28.4835 142.681 27.7002 145H230.148C229.448 144.122 229.034 143.029 229.034 141.845C229.034 138.944 231.523 136.592 234.593 136.592C237.663 136.592 240.152 138.944 240.152 141.845C240.152 143.029 239.738 144.122 239.039 145H672.746C671.963 142.681 671.54 140.209 671.54 137.644C671.54 124.65 682.393 114.05 696 113.5V23.0915C682.762 22.5564 672.131 12.5102 671.564 0H239.042C239.739 0.877755 240.152 1.96853 240.152 3.15046C240.152 6.05195 237.663 8.40408 234.593 8.40408ZM229.034 26.2666C229.034 29.1681 231.523 31.5203 234.593 31.5203C237.663 31.5203 240.152 29.1681 240.152 26.2666C240.152 23.3651 237.663 21.013 234.593 21.013C231.523 21.013 229.034 23.3651 229.034 26.2666ZM234.593 54.6342C231.523 54.6342 229.034 52.2821 229.034 49.3806C229.034 46.4791 231.523 44.127 234.593 44.127C237.663 44.127 240.152 46.4791 240.152 49.3806C240.152 52.2821 237.663 54.6342 234.593 54.6342ZM229.034 72.4968C229.034 75.3983 231.523 77.7504 234.593 77.7504C237.663 77.7504 240.152 75.3983 240.152 72.4968C240.152 69.5953 237.663 67.2432 234.593 67.2432C231.523 67.2432 229.034 69.5953 229.034 72.4968ZM234.593 100.868C231.523 100.868 229.034 98.5156 229.034 95.6141C229.034 92.7126 231.523 90.3605 234.593 90.3605C237.663 90.3605 240.152 92.7126 240.152 95.6141C240.152 98.5156 237.663 100.868 234.593 100.868ZM229.034 118.731C229.034 121.633 231.523 123.985 234.593 123.985C237.663 123.985 240.152 121.633 240.152 118.731C240.152 115.83 237.663 113.478 234.593 113.478C231.523 113.478 229.034 115.83 229.034 118.731Z" fill="url(#paint0_linear_7333_361215)"/>
  <defs>
    <linearGradient id="paint0_linear_7333_361215" x1="-71.1565" y1="73.353" x2="820.524" y2="73.353" gradientUnits="userSpaceOnUse">
      <stop stop-color="#EBFFE5"/>
      <stop offset="0.347729" stop-color="#F2F5F8"/>
      <stop offset="1" stop-color="#F1F0FE"/>
    </linearGradient>
  </defs>
</svg>