<!-- <svg xmlns="http://www.w3.org/2000/svg" width="201" height="42" viewBox="0 0 201 42" fill="none">
  <path d="M188.193 24.1989L193.424 10.5376H200.01L187.629 38.5H181.306L184.994 30.6344L176.526 10.5376H183.489L188.193 24.1989Z" fill="#01010C"/>
  <path d="M176.086 22.3548H161.559C162.086 25.1398 164.043 26.5699 167.468 26.5699C170.065 26.5699 172.097 26.0806 174.355 24.9516L175.296 29.0914C172.812 30.4462 170.215 31.2366 166.377 31.2366C159 31.2366 155.274 27.1344 155.274 20.6237C155.274 14.3763 159.602 9.93549 165.963 9.93549C171.683 9.93549 176.237 13.2097 176.237 20.5484C176.237 21.3011 176.162 21.8656 176.086 22.3548ZM161.484 18.9677H170.102C169.801 16.0323 168.522 14.4892 165.85 14.4892C163.291 14.4892 161.86 16.0323 161.484 18.9677Z" fill="#01010C"/>
  <path d="M151.909 30.5968H145.963V4.13977H151.909V30.5968Z" fill="#01010C"/>
  <path d="M141.582 30.5968H135.636V4.13977H141.582V30.5968Z" fill="#01010C"/>
  <path d="M125.311 13.2097V10.5376H131.257V30.5968H125.311V27.2849C123.693 29.6936 121.397 31.086 118.424 31.086C113.381 31.086 108.526 27.5108 108.526 20.5484C108.526 13.586 113.155 9.93549 118.424 9.93549C121.359 9.93549 123.655 11.0269 125.311 13.2097ZM119.591 26.1559C122.187 26.1559 124.333 23.8602 125.311 20.4731C124.22 16.7473 122.037 14.8656 119.553 14.8656C116.881 14.8656 114.811 16.8602 114.811 20.4731C114.811 24.0484 116.919 26.1559 119.591 26.1559Z" fill="#01010C"/>
  <path d="M96.5685 24.1613L106.837 5.53766H113.461L99.4663 30.5968H93.4072L85.9395 17.5377H92.9018L96.5685 24.1613Z" fill="#9BF381"/>
  <path d="M76.403 10.0107C80.7686 10.0107 83.7794 12.6075 83.7794 19.1935V30.5968H77.8331V19.4946C77.8331 16.4462 76.817 14.9785 74.6718 14.9785C72.3761 14.9785 70.8331 16.6344 69.4783 20.0591V30.5968H63.532V19.4946C63.532 16.4462 62.6288 14.9785 60.5589 14.9785C58.2256 14.9785 56.5697 16.6344 55.1772 20.0591V30.5968H49.231V10.5376H55.1772V13.8118C56.9084 11.3279 59.2417 10.0107 62.403 10.0107C65.5643 10.0107 67.86 11.4032 68.8761 14.6774C70.6449 11.5914 72.9406 10.0107 76.403 10.0107Z" fill="#01010C"/>
  <path d="M38.9063 13.2097V10.5376H44.8525V30.5968H38.9063V27.2849C37.288 29.6936 34.9923 31.086 32.0192 31.086C26.9762 31.086 22.1213 27.5108 22.1213 20.5484C22.1213 13.586 26.7504 9.93549 32.0192 9.93549C34.9547 9.93549 37.2504 11.0269 38.9063 13.2097ZM33.1859 26.1559C35.7826 26.1559 37.9278 23.8602 38.9063 20.4731C37.8149 16.7473 35.6321 14.8656 33.1482 14.8656C30.4762 14.8656 28.4063 16.8602 28.4063 20.4731C28.4063 24.0484 30.5138 26.1559 33.1859 26.1559Z" fill="#01010C"/>
  <path d="M9.03226 31.1613C5.60753 31.1613 2.48387 30.2204 0 28.8656L0.827956 23.5591C3.19892 24.9516 6.17204 26.0054 8.95699 26.0054C11.8548 26.0054 13.6613 24.914 13.6613 23.2204C13.6613 18.7043 0.18817 21.4892 0.18817 12.0806C0.18817 7.1129 4.25269 3.5 10.4247 3.5C13.7366 3.5 17.5376 4.51613 19.1183 5.72043L18.0645 10.8763C16.1828 9.82258 13.5484 8.73118 10.7258 8.73118C7.60215 8.73118 6.32258 10.086 6.32258 11.4785C6.32258 16.0323 19.7204 13.8495 19.7204 22.8441C19.7204 28.0376 14.8656 31.1613 9.03226 31.1613Z" fill="#01010C"/>
</svg> -->

<svg xmlns="http://www.w3.org/2000/svg" width="200" height="24" viewBox="0 0 200 24" fill="none">
  <path d="M78.4243 1.58675C80.5335 1.58675 82.2956 2.25776 83.7106 3.59978C85.1523 4.91495 85.8732 7.03534 85.8732 9.96095V23.1664H80.1063V11.0882C80.1063 9.47782 79.826 8.32368 79.2653 7.62583C78.7047 6.92798 77.7969 6.57906 76.5421 6.57906C75.7678 6.57906 75.0336 6.82062 74.3395 7.30375C73.672 7.76003 73.1247 8.43104 72.6975 9.31678C72.297 10.2025 72.0968 11.2493 72.0968 12.4571V23.1664H66.3299V11.5714C66.3299 9.90726 66.0496 8.65919 65.4889 7.82713C64.955 6.99508 64.0606 6.57906 62.8057 6.57906C61.9781 6.57906 61.2172 6.88772 60.523 7.50505C59.8555 8.12238 59.3216 8.96785 58.9211 10.0415C58.5206 11.1151 58.3204 12.3229 58.3204 13.6649V23.1664H52.5535V1.90883H58.3204V3.11665C58.3204 3.59978 58.267 4.00238 58.1602 4.32447C58.0534 4.64655 57.8799 5.08942 57.6396 5.65306C57.5328 5.86779 57.4794 6.04225 57.4794 6.17645C57.4794 6.3375 57.5728 6.45828 57.7597 6.5388L57.8799 6.57906C58.0134 6.57906 58.1201 6.51196 58.2002 6.37775C58.307 6.21671 58.3738 6.12277 58.4005 6.09593C60.216 3.08981 62.3786 1.58675 64.8882 1.58675C66.3032 1.58675 67.518 1.97593 68.5326 2.7543C69.5738 3.53267 70.2679 4.53919 70.615 5.77385C70.6951 6.04225 70.882 6.17645 71.1757 6.17645C71.416 6.17645 71.6162 6.05567 71.7764 5.81411C72.7376 4.47209 73.7388 3.43873 74.78 2.71404C75.8212 1.96251 77.036 1.58675 78.4243 1.58675Z" fill="#9BF381"/>
  <path fillRule="evenodd" clipRule="evenodd" d="M24.9907 17.3401C24.9907 15.1124 25.7917 13.4751 27.3936 12.4283C28.9955 11.3816 31.2515 10.7911 34.1616 10.6569L36.6446 10.5764C38.8872 10.5227 40.5025 10.4019 41.4903 10.214C42.4782 10.0261 42.9588 9.56984 42.9321 8.84515C42.9054 7.98625 42.5316 7.31525 41.8107 6.83212C41.0899 6.34899 39.6615 6.10743 37.5256 6.10743C35.3364 6.10743 33.8279 6.34899 33.0002 6.83212C32.1726 7.31525 31.652 8.03993 31.4384 9.00619H25.7516C26.1521 6.48319 27.4737 4.61779 29.7163 3.40997C31.959 2.20215 34.6155 1.59824 37.6858 1.59824C41.0765 1.59824 43.7597 2.29609 45.7354 3.69179C47.7111 5.08749 48.6989 7.66417 48.6989 11.4218V23.1779H42.9321V21.6883C42.9321 21.2588 42.9855 20.8696 43.0923 20.5207C43.2258 20.1718 43.4126 19.7826 43.6529 19.3532C43.8131 19.0848 43.8932 18.8834 43.8932 18.7492C43.8932 18.615 43.7998 18.5077 43.6129 18.4272C43.5595 18.4003 43.4927 18.3869 43.4126 18.3869C43.2524 18.3869 43.119 18.4674 43.0122 18.6285C42.9321 18.7627 42.8787 18.8432 42.852 18.87C41.6238 20.3999 40.2889 21.5541 38.8472 22.3324C37.4322 23.1108 35.6033 23.5 33.3607 23.5C31.8389 23.5 30.4372 23.2316 29.1557 22.6948C27.8741 22.158 26.8596 21.4333 26.112 20.5207C25.3645 19.5813 24.9907 18.5211 24.9907 17.3401ZM42.9321 12.227C42.2379 12.8444 41.2234 13.3006 39.8884 13.5959C38.5535 13.8911 36.8982 14.1059 34.9225 14.2401C33.4808 14.3474 32.4262 14.6158 31.7588 15.0453C31.0913 15.4747 30.7576 16.1457 30.7576 17.0583C30.7576 17.8098 31.1046 18.4137 31.7988 18.87C32.5197 19.3263 33.4408 19.5545 34.5621 19.5545C34.7757 19.5545 35.1495 19.5276 35.6834 19.4739C36.7514 19.3397 37.8327 18.9908 38.9273 18.4272C40.0486 17.8367 40.9964 17.018 41.7707 15.9713C42.5449 14.9245 42.9321 13.6764 42.9321 12.227Z" fill="#9BF381"/>
  <path d="M2.6031 12.3363C1.37497 11.1017 0.760906 9.67911 0.760906 8.06869H6.36902C6.68589 9.02437 7.51983 9.22422 8.28155 9.40677C8.37938 9.43021 8.47601 9.45337 8.57021 9.47781C9.39786 9.66569 10.626 9.82674 12.2546 9.96094C15.6987 10.2293 18.3552 10.8869 20.2241 11.9337C22.1197 12.9536 23.0675 14.4835 23.0675 16.5234C23.0675 18.7512 22.0663 20.4689 20.0639 21.6768C18.0882 22.8846 15.2315 23.4885 11.4937 23.4885C7.8894 23.4885 5.09941 22.8309 3.12372 21.5157C1.17473 20.1737 0.133492 18.3351 0 16H5.68677C5.71347 16.9394 6.1807 17.7312 7.08844 18.3754C7.99619 18.9927 9.53135 19.3014 11.6939 19.3014C15.4317 19.3014 17.3006 18.5364 17.3006 17.0065C17.3006 16.4966 17.0336 16.1074 16.4997 15.839C15.9924 15.5706 15.2849 15.3693 14.3771 15.2351C13.4694 15.1009 11.9743 14.9264 9.89178 14.7117C6.28749 14.3628 3.85793 13.571 2.6031 12.3363Z" fill="#9BF381"/>
  <path d="M3.68725 0.519836C2.10741 0.519836 0.826703 1.80736 0.826703 3.39559C0.826703 4.98383 2.10741 6.27135 3.68725 6.27135C5.26709 6.27135 6.5478 4.98383 6.5478 3.39559C6.5478 1.80736 5.26709 0.519836 3.68725 0.519836Z" fill="#9BF381"/>
  <path d="M11.1962 0.519836C9.61636 0.519836 8.33565 1.80736 8.33565 3.39559C8.33565 4.98383 9.61636 6.27135 11.1962 6.27135C12.776 6.27135 14.0567 4.98383 14.0567 3.39559C14.0567 1.80736 12.776 0.519836 11.1962 0.519836Z" fill="#9BF381"/>
  <path d="M199.387 20.4059L200 22.3719C198.646 23.081 197.357 23.5 195.488 23.5C192.651 23.5 190.363 21.824 190.363 17.5696V8.41631H187.301V6.35358H190.363V1.26123H192.78V6.35358H199.033V8.41631H192.78V17.1829C192.78 20.3092 194.134 21.3083 195.971 21.3083C197.035 21.3083 198.324 21.0183 199.387 20.4059Z" fill="#01010C"/>
  <path d="M177.885 5.99893C182.171 5.99893 185.652 8.89964 185.652 14.7655C185.652 15.0556 185.62 15.4423 185.588 15.668H172.277C172.502 19.4389 174.694 21.276 178.497 21.276C180.431 21.276 182.171 21.0181 184.266 19.7934L184.814 21.7594C183.364 22.7908 180.753 23.4999 178.368 23.4999C173.05 23.4999 169.698 20.4058 169.698 14.9589C169.698 9.18971 173.469 5.99893 177.885 5.99893ZM177.82 8.22281C174.887 8.22281 172.728 9.99546 172.309 13.6052H183.074C182.751 9.931 180.689 8.22281 177.82 8.22281Z" fill="#01010C"/>
  <path d="M160.774 14.5399L169.121 23.1776H165.931L158.389 15.4101V23.1776H155.972V0.519836H158.389V14.2498L165.512 6.35348H168.509L160.774 14.5399Z" fill="#01010C"/>
  <path d="M151.285 6.03116C151.833 6.03116 152.413 6.12785 152.993 6.35346L152.477 8.48064C152.026 8.31949 151.575 8.2228 151.156 8.2228C148.707 8.2228 146.708 10.6401 145.516 13.8953V23.1776H143.099V6.35346H145.516V10.2855C146.837 7.96496 148.739 6.03116 151.285 6.03116Z" fill="#01010C"/>
  <path d="M135.325 9.70539V6.35346H137.742V23.1776H135.325V19.6323C133.874 22.1784 131.747 23.4999 128.879 23.4999C124.302 23.4999 120.692 20.4058 120.692 14.83C120.692 9.18971 124.302 5.99893 128.879 5.99893C131.715 5.99893 133.906 7.3526 135.325 9.70539ZM128.911 21.276C132.424 21.276 134.648 18.472 135.325 14.7655C134.777 11.1557 132.134 8.22281 128.911 8.22281C125.656 8.22281 123.238 10.2533 123.238 14.7977C123.238 18.9232 125.656 21.276 128.911 21.276Z" fill="#01010C"/>
  <path d="M105.751 16.087L113.873 0.519836H116.354V23.1776H113.84V5.35435L106.814 18.6654H104.365L97.3709 5.77334V23.1776H94.8569V0.519836H97.3386V0.584296L105.751 16.087Z" fill="#01010C"/>
</svg>