<!-- <svg xmlns="http://www.w3.org/2000/svg" width="250" height="51" viewBox="0 0 250 51" fill="none">
  <path d="M234.313 29.4791L240.82 12.4858H249.013L233.611 47.2683H225.746L230.334 37.4843L219.801 12.4858H228.462L234.313 29.4791Z" fill="white"/>
  <path d="M219.254 27.1853H201.184C201.839 30.6495 204.273 32.4284 208.533 32.4284C211.763 32.4284 214.291 31.8198 217.1 30.4154L218.271 35.5649C215.181 37.2502 211.951 38.2333 207.176 38.2333C198 38.2333 193.366 33.1306 193.366 25.0319C193.366 17.2608 198.749 11.7368 206.661 11.7368C213.776 11.7368 219.441 15.8096 219.441 24.9382C219.441 25.8745 219.347 26.5767 219.254 27.1853ZM201.09 22.9721H211.81C211.436 19.3206 209.844 17.4012 206.52 17.4012C203.337 17.4012 201.558 19.3206 201.09 22.9721Z" fill="white"/>
  <path d="M189.18 37.4372H181.783V4.52734H189.18V37.4372Z" fill="white"/>
  <path d="M176.334 37.4372H168.937V4.52734H176.334V37.4372Z" fill="white"/>
  <path d="M156.094 15.8096V12.4858H163.491V37.4374H156.094V33.3178C154.081 36.3139 151.226 38.046 147.527 38.046C141.254 38.046 135.215 33.5987 135.215 24.9382C135.215 16.2777 140.974 11.7368 147.527 11.7368C151.179 11.7368 154.034 13.0944 156.094 15.8096ZM148.979 31.9134C152.209 31.9134 154.877 29.0578 156.094 24.8446C154.737 20.2101 152.022 17.8694 148.932 17.8694C145.608 17.8694 143.033 20.3505 143.033 24.8446C143.033 29.2919 145.655 31.9134 148.979 31.9134Z" fill="white"/>
  <path d="M120.341 29.4321L133.115 6.26611H141.354L123.946 37.4372H116.409L107.12 21.1929H115.78L120.341 29.4321Z" fill="#9BF381"/>
  <path d="M95.2575 11.8306C100.688 11.8306 104.433 15.0607 104.433 23.2531V37.4376H97.0364V23.6276C97.0364 19.8357 95.7724 18.01 93.1041 18.01C90.2484 18.01 88.3291 20.0697 86.6438 24.3298V37.4376H79.2473V23.6276C79.2473 19.8357 78.1237 18.01 75.549 18.01C72.6466 18.01 70.5868 20.0697 68.8547 24.3298V37.4376H61.4581V12.486H68.8547V16.5587C71.0081 13.469 73.9105 11.8306 77.8429 11.8306C81.7752 11.8306 84.6308 13.5627 85.8948 17.6354C88.095 13.7967 90.9507 11.8306 95.2575 11.8306Z" fill="white"/>
  <path d="M48.6152 15.8096V12.4858H56.0117V37.4374H48.6152V33.3178C46.6022 36.3139 43.7465 38.046 40.0483 38.046C33.7753 38.046 27.7363 33.5987 27.7363 24.9382C27.7363 16.2777 33.4944 11.7368 40.0483 11.7368C43.6997 11.7368 46.5554 13.0944 48.6152 15.8096ZM41.4995 31.9134C44.7296 31.9134 47.398 29.0578 48.6152 24.8446C47.2576 20.2101 44.5424 17.8694 41.4527 17.8694C38.1289 17.8694 35.5542 20.3505 35.5542 24.8446C35.5542 29.2919 38.1757 31.9134 41.4995 31.9134Z" fill="white"/>
  <path d="M11.4548 38.1394C7.19482 38.1394 3.3093 36.969 0.219604 35.2838L1.2495 28.6831C4.19875 30.4151 7.89702 31.7259 11.3612 31.7259C14.9659 31.7259 17.2129 30.3683 17.2129 28.2617C17.2129 22.6441 0.45367 26.1083 0.45367 14.4049C0.45367 8.22554 5.50953 3.73145 13.187 3.73145C17.3065 3.73145 22.0347 4.99541 24.0009 6.49344L22.6901 12.9069C20.3494 11.5961 17.0725 10.2385 13.5615 10.2385C9.67594 10.2385 8.08428 11.9238 8.08428 13.6559C8.08428 19.3203 24.7499 16.6052 24.7499 27.7936C24.7499 34.2539 18.7109 38.1394 11.4548 38.1394Z" fill="white"/>
</svg> -->

<svg xmlns="http://www.w3.org/2000/svg" width="249" height="30" viewBox="0 0 249 30" fill="none">
  <path d="M97.7718 2.05907C100.395 2.05907 102.587 2.89374 104.347 4.56308C106.141 6.19903 107.037 8.83659 107.037 12.4757V28.9021H99.864V13.878C99.864 11.8748 99.5153 10.4392 98.8179 9.57109C98.1205 8.70304 96.9914 8.26901 95.4305 8.26901C94.4674 8.26901 93.5541 8.56949 92.6906 9.17045C91.8604 9.73803 91.1796 10.5727 90.6482 11.6745C90.15 12.7762 89.901 14.0783 89.901 15.5807V28.9021H82.7275V14.479C82.7275 12.409 82.3788 10.8565 81.6814 9.8215C81.0172 8.7865 79.9047 8.26901 78.3438 8.26901C77.3143 8.26901 76.3678 8.65296 75.5043 9.42085C74.674 10.1888 74.0098 11.2404 73.5117 12.5759C73.0135 13.9114 72.7645 15.4138 72.7645 17.0831V28.9021H65.591V2.45971H72.7645V3.96211C72.7645 4.56308 72.698 5.06388 72.5652 5.46452C72.4324 5.86516 72.2165 6.41604 71.9176 7.11717C71.7848 7.38426 71.7183 7.60128 71.7183 7.76821C71.7183 7.96853 71.8346 8.11877 72.067 8.21893L72.2165 8.26901C72.3825 8.26901 72.5154 8.18554 72.615 8.01861C72.7478 7.81829 72.8309 7.70143 72.8641 7.66805C75.1224 3.92873 77.8124 2.05907 80.9342 2.05907C82.6943 2.05907 84.2054 2.54317 85.4674 3.51139C86.7626 4.47961 87.6261 5.73161 88.0578 7.26741C88.1574 7.60127 88.3899 7.76821 88.7552 7.76821C89.0541 7.76821 89.3032 7.61797 89.5024 7.31749C90.698 5.64815 91.9434 4.36275 93.2386 3.46131C94.5338 2.52648 96.0449 2.05907 97.7718 2.05907Z" fill="#9BF381"/>
  <path fillRule="evenodd" clipRule="evenodd" d="M31.3056 21.6547C31.3056 18.8836 32.3019 16.847 34.2945 15.5449C36.2871 14.2429 39.0934 13.5083 42.7133 13.3414L45.8019 13.2413C48.5915 13.1745 50.6008 13.0242 51.8295 12.7905C53.0583 12.5568 53.6561 11.9892 53.6229 11.0878C53.5897 10.0194 53.1247 9.18476 52.2281 8.58379C51.3314 7.98283 49.5546 7.68235 46.8978 7.68235C44.1746 7.68235 42.2982 7.98283 41.2687 8.58379C40.2392 9.18476 39.5916 10.0862 39.3259 11.2881H32.2521C32.7502 8.14976 34.3941 5.82938 37.1838 4.32697C39.9735 2.82457 43.2779 2.07337 47.0971 2.07337C51.3148 2.07337 54.6524 2.94142 57.11 4.67754C59.5675 6.41365 60.7963 9.61878 60.7963 14.2929V28.9164H53.6229V27.0634C53.6229 26.5292 53.6893 26.0451 53.8222 25.6111C53.9882 25.177 54.2207 24.6929 54.5196 24.1587C54.7188 23.8249 54.8185 23.5745 54.8185 23.4075C54.8185 23.2406 54.7022 23.107 54.4698 23.0069C54.4033 22.9735 54.3203 22.9568 54.2207 22.9568C54.0214 22.9568 53.8554 23.057 53.7225 23.2573C53.6229 23.4242 53.5565 23.5244 53.5233 23.5578C51.9956 25.4608 50.3351 26.8965 48.5417 27.8647C46.7816 28.8329 44.5067 29.317 41.717 29.317C39.824 29.317 38.0805 28.9831 36.4864 28.3154C34.8923 27.6477 33.6303 26.7462 32.7004 25.6111C31.7705 24.4425 31.3056 23.1237 31.3056 21.6547ZM53.6229 15.2945C52.7594 16.0624 51.4974 16.63 49.8369 16.9973C48.1764 17.3645 46.1174 17.6316 43.6598 17.7985C41.8665 17.9321 40.5546 18.266 39.7244 18.8002C38.8941 19.3343 38.479 20.169 38.479 21.3042C38.479 22.239 38.9107 22.9902 39.7742 23.5578C40.6709 24.1253 41.8166 24.4091 43.2115 24.4091C43.4772 24.4091 43.9421 24.3757 44.6063 24.309C45.9347 24.142 47.2797 23.708 48.6414 23.0069C50.0362 22.2724 51.2152 21.2541 52.1782 19.952C53.1413 18.6499 53.6229 17.0974 53.6229 15.2945Z" fill="#9BF381"/>
  <path d="M3.45761 15.4305C1.92993 13.8947 1.1661 12.1252 1.1661 10.122H8.14204C8.5362 11.3107 9.57353 11.5593 10.521 11.7864C10.6427 11.8156 10.7629 11.8444 10.8801 11.8748C11.9096 12.1085 13.4373 12.3088 15.4631 12.4757C19.7472 12.8096 23.0517 13.6276 25.3764 14.9297C27.7343 16.1984 28.9133 18.1014 28.9133 20.6388C28.9133 23.4099 27.6679 25.5467 25.1771 27.0491C22.7196 28.5515 19.1661 29.3027 14.5166 29.3027C10.0332 29.3027 6.56277 28.4847 4.10521 26.8488C1.68086 25.1794 0.385656 22.8924 0.219604 19.9878H7.29339C7.3266 21.1563 7.90778 22.1412 9.03693 22.9425C10.1661 23.7104 12.0757 24.0943 14.7657 24.0943C19.4151 24.0943 21.7399 23.1428 21.7399 21.2398C21.7399 20.6054 21.4078 20.1213 20.7436 19.7874C20.1126 19.4536 19.2325 19.2032 18.1033 19.0362C16.9742 18.8693 15.1144 18.6523 12.524 18.3852C8.04063 17.9512 5.01849 16.9663 3.45761 15.4305Z" fill="#9BF381"/>
  <path d="M4.80619 0.731934C2.84102 0.731934 1.24794 2.33348 1.24794 4.30909C1.24794 6.2847 2.84102 7.88625 4.80619 7.88625C6.77135 7.88625 8.36443 6.2847 8.36443 4.30909C8.36443 2.33348 6.77135 0.731934 4.80619 0.731934Z" fill="#9BF381"/>
  <path d="M14.1466 0.731934C12.1814 0.731934 10.5883 2.33348 10.5883 4.30909C10.5883 6.2847 12.1814 7.88625 14.1466 7.88625C16.1117 7.88625 17.7048 6.2847 17.7048 4.30909C17.7048 2.33348 16.1117 0.731934 14.1466 0.731934Z" fill="#9BF381"/>
  <path d="M248.238 25.4684L249 27.9139C247.316 28.7959 245.712 29.3171 243.387 29.3171C239.859 29.3171 237.013 27.2324 237.013 21.9404V10.5545H233.204V7.98868H237.013V1.6543H240.019V7.98868H247.797V10.5545H240.019V21.4593C240.019 25.3481 241.703 26.5909 243.988 26.5909C245.311 26.5909 246.915 26.2301 248.238 25.4684Z" fill="white"/>
  <path d="M221.491 7.54736C226.823 7.54736 231.153 11.1556 231.153 18.4521C231.153 18.813 231.112 19.294 231.072 19.5747H214.515C214.795 24.2653 217.522 26.5505 222.252 26.5505C224.658 26.5505 226.823 26.2298 229.429 24.7063L230.11 27.1519C228.306 28.4348 225.059 29.3168 222.092 29.3168C215.477 29.3168 211.307 25.4681 211.307 18.6927C211.307 11.5164 215.998 7.54736 221.491 7.54736ZM221.41 10.3136C217.762 10.3136 215.076 12.5187 214.555 17.0089H227.945C227.544 12.4385 224.979 10.3136 221.41 10.3136Z" fill="white"/>
  <path d="M200.206 18.1715L210.59 28.9159H206.621L197.24 19.254V28.9159H194.233V0.731934H197.24V17.8107L206.1 7.98841H209.828L200.206 18.1715Z" fill="white"/>
  <path d="M188.403 7.5874C189.085 7.5874 189.806 7.70767 190.528 7.98831L189.887 10.6343C189.325 10.4339 188.764 10.3136 188.243 10.3136C185.196 10.3136 182.71 13.3204 181.227 17.3696V28.9158H178.22V7.98831H181.227V12.8794C182.871 9.99286 185.236 7.5874 188.403 7.5874Z" fill="white"/>
  <path d="M168.55 12.1578V7.98837H171.557V28.9159H168.55V24.5059C166.746 27.6731 164.1 29.3168 160.532 29.3168C154.839 29.3168 150.349 25.4681 150.349 18.5323C150.349 11.5164 154.839 7.54736 160.532 7.54736C164.06 7.54736 166.786 9.23119 168.55 12.1578ZM160.572 26.5505C164.942 26.5505 167.708 23.0626 168.55 18.4521C167.868 13.9619 164.581 10.3136 160.572 10.3136C156.523 10.3136 153.516 12.8394 153.516 18.4922C153.516 23.6239 156.523 26.5505 160.572 26.5505Z" fill="white"/>
  <path d="M131.763 20.0959L141.866 0.731934H144.953V28.9159H141.826V6.74559L133.086 23.3032H130.039L121.339 7.26678V28.9159H118.212V0.731934H121.299V0.812115L131.763 20.0959Z" fill="white"/>
</svg>